:SAMPLES-PER-SECOND 30
:FULLY-SPECIFIED
:DEGREES
119
root  34.86771171 36.57571087 -14.28121281 10.32009888 -1.559074044 4.079928398
lowerback  -8.811369896 0.8025439382 0.5469933152
upperback  -3.939642191 1.59879005 -4.388120174
thorax  0.98853302 0.9766759872 -4.702941895
lowerneck  -11.48910046 -8.613570213 -5.078609943
upperneck  11.31314564 -12.20809174 8.167392731
head  6.136037827 -5.69769001 2.258330107
lclavicle  0 -4.497500157e-015 -2.743230041e-014
lhumerus  -47.97069931 30.5793972 61.82320023
lradius  -0.09045270085 -6.507048965e-006 28.81489944
lwrist  3.192251654e-007 -3.790274832e-007 -30.23620033
lhand  -3.524589536e-031 -36.73839951 -10.60000038
lfingers  90 7.125020027 -90
lthumb  94.72465515 -25.4428997 100.889473
rclavicle  0 -4.497500157e-015 -2.743230041e-014
rhumerus  47.90880203 -22.46160126 -47.61790085
rradius  -5.16745672e-007 2.214343908e-008 55.21379852
rwrist  0.0006954420824 -0.004670973402 -167.7810059
rhand  -3.155077387e-031 4.394899845 -5.62334013
rfingers  -90 -7.125020027 -90
rthumb  -84.09854889 -10.18086147 -59.68124008
rfemur  -12.03575325 14.4585247 12.43785191
rtibia  -0.8305660486 -0.9543076754 19.34806061
rfoot  0.4793942273 -20.82745934 -37.51297379
rtoes  4.107004166 19.59246254 -102.0872574
lfemur  -5.548399925 -16.93118095 -22.26226616
ltibia  6.263617992 0.2945501804 8.602324486
lfoot  0.6494284272 -23.2716217 34.8617897
ltoes  -8.496530533 -18.17104721 -115.6345825
120
root  34.86850468 36.5763026 -14.28034475 10.32917118 -1.499972105 4.111727238
lowerback  -8.805660248 0.8118539453 0.5465487242
upperback  -3.941869974 1.611009955 -4.386410236
thorax  0.9870929718 0.9827560186 -4.702600002
lowerneck  -11.4914999 -8.648650169 -5.077129841
upperneck  11.31359959 -12.25199986 8.148579597
head  6.135437965 -5.719511032 2.249993801
lclavicle  0 -4.497500157e-015 -2.743230041e-014
lhumerus  -47.97800064 30.63240051 61.79510117
lradius  -0.09234119952 -6.507048965e-006 28.78949738
lwrist  3.192251654e-007 -3.790274832e-007 -30.30130005
lhand  -3.529809311e-031 -36.74430084 -10.53619957
lfingers  90 7.125020027 -90
lthumb  94.71405792 -25.38007736 100.8900146
rclavicle  0 -4.497500157e-015 -2.743230041e-014
rhumerus  48.49639893 -22.51539993 -47.71310043
rradius  -5.16745672e-007 2.214343908e-008 54.47430038
rwrist  0.0006954420824 -0.004670973402 -167.5570068
rhand  -3.164127258e-031 4.458809853 -5.488679886
rfingers  -90 -7.125020027 -90
rthumb  -84.01281738 -10.30018234 -59.60629272
rfemur  -12.05084419 14.42671108 12.42228508
rtibia  -0.8519976139 -0.9611094594 19.3904953
rfoot  0.4487050474 -20.82722282 -37.55368805
rtoes  4.108068943 19.59321785 -102.0904312
lfemur  -5.493731022 -16.9709034 -22.3169384
ltibia  6.323041439 0.2906745374 8.488538742
lfoot  0.6494811773 -23.22402573 34.8555603
ltoes  -8.496743202 -18.16996574 -115.6115799
121
root  34.86939077 36.57689432 -14.27954126 10.31569958 -1.422694683 4.136868954
lowerback  -8.822770119 0.8214110136 0.5407149196
upperback  -3.946439981 1.626749992 -4.396800041
thorax  0.9932630062 0.9915670156 -4.708409786
lowerneck  -11.47859955 -8.684220314 -5.097340107
upperneck  11.30220032 -12.29969978 8.167449951
head  6.134796619 -5.742839813 2.245593309
lclavicle  0 -4.497500157e-015 -2.743230041e-014
lhumerus  -47.98099899 30.6909008 61.73529816
lradius  -0.09419472516 -6.507048965e-006 28.7737999
lwrist  3.192251654e-007 -3.790274832e-007 -30.47949791
lhand  -3.531160125e-031 -36.8307991 -10.50790024
lfingers  90 7.125020027 -90
lthumb  94.74837494 -25.34933472 100.9798584
rclavicle  0 -4.497500157e-015 -2.743230041e-014
rhumerus  49.13560104 -22.55990028 -47.74229813
rradius  -5.16745672e-007 2.214343908e-008 53.60509872
rwrist  0.0006954420824 -0.004670973402 -167.2929993
rhand  -3.166968842e-031 4.882160187 -5.443260193
rfingers  -90 -7.125020027 -90
rthumb  -83.87811279 -10.35982418 -59.18690491
rfemur  -12.03076553 14.39090729 12.42109013
rtibia  -0.8706827164 -0.9751804471 19.41238594
rfoot  0.4687696099 -20.83638382 -37.49201965
rtoes  4.097596645 19.59396362 -102.0591965
lfemur  -5.427340984 -17.03419113 -22.36733055
ltibia  6.366968155 0.2822328508 8.407151222
lfoot  0.6514353156 -23.19082642 34.85274506
ltoes  -8.498161316 -18.16854286 -115.5991898
122
root  34.87066734 36.57743499 -14.27877531 10.32611084 -1.359765053 4.13966608
lowerback  -8.805029869 0.8349419236 0.4923377037
upperback  -3.952470064 1.648849964 -4.391139984
thorax  0.9779400229 1.003229976 -4.673039913
lowerneck  -11.46640015 -8.724280357 -5.109250069
upperneck  11.29399967 -12.34869957 8.153420448
head  6.134059906 -5.768327713 2.246168137
lclavicle  0 -4.497500157e-015 -2.743230041e-014
lhumerus  -47.95449829 30.72639847 61.74209976
lradius  -0.09595343471 -6.507048965e-006 28.71779823
lwrist  3.192251654e-007 -3.790274832e-007 -30.47789955
lhand  -3.526859336e-031 -36.84529877 -10.55770016
lfingers  90 7.125020027 -90
lthumb  94.76564026 -25.39764977 100.9998856
rclavicle  0 -4.497500157e-015 -2.743230041e-014
rhumerus  49.64289856 -22.60480118 -47.75529861
rradius  -5.16745672e-007 2.214343908e-008 52.84569931
rwrist  0.0006954420824 -0.004670973402 -167.128006
rhand  -3.161327727e-031 4.666210175 -5.528580189
rfingers  -90 -7.125020027 -90
rthumb  -83.97920227 -10.27595234 -59.4066391
rfemur  -12.02923775 14.36112404 12.43173409
rtibia  -0.8804038763 -0.9644901156 19.40540504
rfoot  0.4854094386 -20.78946304 -37.48290253
rtoes  4.088436127 19.59470749 -102.0318832
lfemur  -5.543525696 -17.09412003 -22.31702423
ltibia  6.287181854 0.2765819728 8.580105782
lfoot  0.6618208289 -23.25056458 34.82128906
ltoes  -8.502608299 -18.16701698 -115.6134491
123
root  34.87342474 36.57787353 -14.27804091 10.3566103 -1.296542287 4.142148018
lowerback  -8.724869728 0.9123149514 0.5906847715
upperback  -3.974829912 1.749799967 -4.482170105
thorax  0.924127996 1.05400002 -4.816649914
lowerneck  -11.39480019 -8.8020401 -5.131360054
upperneck  11.26350021 -12.46520042 8.220760345
head  6.13317585 -5.825845242 2.258476496
lclavicle  0 -4.497500157e-015 -2.743230041e-014
lhumerus  -47.81919861 30.43460274 61.8791008
lradius  -0.09767760336 -6.507048965e-006 28.71800041
lwrist  3.192251654e-007 -3.790274832e-007 -30.28560066
lhand  -3.522714218e-031 -36.83779907 -10.6086998
lfingers  90 7.125020027 -90
lthumb  94.77290344 -25.44792175 100.9964981
rclavicle  0 -4.497500157e-015 -2.743230041e-014
rhumerus  50.07640076 -22.79109955 -47.91960144
rradius  -5.16745672e-007 2.214343908e-008 52.04970169
rwrist  0.0006954420824 -0.004670973402 -166.5449982
rhand  -3.160907637e-031 4.745969772 -5.534170151
rfingers  -90 -7.125020027 -90
rthumb  -83.96118927 -10.27509785 -59.32896423
rfemur  -12.04478264 14.33063316 12.43272781
rtibia  -0.884558022 -0.9654982686 19.39680481
rfoot  0.481236279 -20.77390862 -37.514534
rtoes  4.083323002 19.59545708 -102.0166321
lfemur  -5.738281727 -17.12511253 -22.23526192
ltibia  6.171250343 0.2850066423 8.82276535
lfoot  0.6664790511 -23.3567028 34.74856567
ltoes  -8.512215614 -18.16562653 -115.6442642
